Coordinates
version=1
nRows=18
nColumns=22
inDegrees=yes

Units are S.I. units (second, meters, Newtons, ...)
If the header above contains a line with 'inDegrees', this indicates whether rotational values are in degrees (yes) or radians (no).

endheader
time	pelvis_tilt	pelvis_list	pelvis_rotation	pelvis_tx	pelvis_ty	pelvis_tz	hip_flexion_r	hip_adduction_r	hip_rotation_r	knee_angle_r	ankle_angle_r	subtalar_angle_r	hip_flexion_l	hip_adduction_l	hip_rotation_l	knee_angle_l	ankle_angle_l	subtalar_angle_l	lumbar_extension	lumbar_bending	lumbar_rotation
      0.01000000	    -10.91665153	      4.76295592	    -34.98277943	     -1.04235596	      0.97561538	     -0.22583744	     19.28755891	      3.41020645	     -4.88143052	    -21.21087855	     18.75941530	     -9.05740257	     18.65609946	     -0.80729919	     -1.04385236	    -20.47273846	     20.76120909	     -2.96077921	      5.12937791	      3.92716832	      3.23225176
      0.02000000	    -10.93290595	      4.77169890	    -34.97616999	     -1.04255767	      0.97563245	     -0.22595555	     19.30245181	      3.41077024	     -4.90546971	    -21.17328888	     18.73976006	     -9.05114285	     18.67871325	     -0.81134243	     -1.05188462	    -20.44774694	     20.73644945	     -2.94216844	      5.12597147	      3.91971385	      3.27572313
      0.03000000	    -11.01432203	      4.82915726	    -34.97807466	     -1.04286395	      0.97552381	     -0.22611822	     19.41997984	      3.41524335	     -4.89120903	    -21.15251339	     18.68842404	     -9.04492091	     18.80344617	     -0.81654426	     -1.06502957	    -20.44332053	     20.70091833	     -2.84271804	      5.21093439	      3.91381957	      3.31799606
      0.04000000	    -11.04625103	      4.84659609	    -34.97000925	     -1.04312172	      0.97553065	     -0.22628087	     19.45099943	      3.41860675	     -4.90965555	    -21.10021035	     18.64674059	     -9.04526807	     18.84278686	     -0.81989358	     -1.05245567	    -20.40624144	     20.66614990	     -2.83940846	      5.22285371	      3.91017727	      3.36314335
      0.05000000	    -11.11923270	      4.89501370	    -34.95563791	     -1.04344954	      0.97544627	     -0.22647681	     19.54451077	      3.42193074	     -4.91492396	    -21.05502333	     18.59784079	     -9.06786193	     18.96093883	     -0.82285057	     -1.04465983	    -20.40698407	     20.63572684	     -2.83640230	      5.29091825	      3.90021709	      3.40612244
      0.06000000	    -11.14200051	      4.90772239	    -34.94268741	     -1.04371848	      0.97546490	     -0.22664241	     19.55980246	      3.42236432	     -4.94642124	    -20.99403203	     18.58604435	     -9.06818028	     18.98827452	     -0.82661047	     -1.04443414	    -20.36497570	     20.62236786	     -2.83426843	      5.29132698	      3.89032093	      3.45698444
      0.07000000	    -11.19587677	      4.94091700	    -34.93554250	     -1.04401471	      0.97544042	     -0.22681903	     19.61905156	      3.42859317	     -4.94873588	    -20.93670120	     18.51578396	     -9.07527701	     19.04412480	     -0.82999035	     -1.02467624	    -20.30196012	     20.56879459	     -2.82739840	      5.33488149	      3.88830560	      3.49880295
      0.08000000	    -11.22682774	      4.96169782	    -34.92439325	     -1.04429529	      0.97543671	     -0.22697446	     19.64414223	      3.42822619	     -4.98130570	    -20.86995863	     18.50342729	     -9.07956284	     19.07651293	     -0.83341675	     -1.02812081	    -20.24990377	     20.55787914	     -2.82560678	      5.35062179	      3.87612433	      3.54551841
      0.09000000	    -11.31793886	      5.03054004	    -34.90226310	     -1.04463014	      0.97530843	     -0.22715669	     19.76900034	      3.42438510	     -4.98880819	    -20.83257871	     18.44885594	     -9.12333403	     19.19119934	     -0.82913993	     -1.02157795	    -20.19099517	     20.50972269	     -2.82566070	      5.45833902	      3.85411518	      3.58141818
      0.10000000	    -11.34880845	      5.04246143	    -34.89009960	     -1.04488713	      0.97531071	     -0.22728763	     19.79234041	      3.43176593	     -5.02024459	    -20.77881525	     18.43365743	     -9.12385923	     19.18870943	     -0.83944951	     -1.02384249	    -20.08595547	     20.50020248	     -2.82261561	      5.47481288	      3.85201856	      3.61432143
      0.11000000	    -11.38011795	      5.06146753	    -34.87560450	     -1.04513901	      0.97530953	     -0.22740276	     19.81752883	      3.43387231	     -5.04542091	    -20.71982106	     18.40172283	     -9.12493863	     19.18302969	     -0.84377114	     -1.02166891	    -19.96898213	     20.47591900	     -2.81986755	      5.49961039	      3.84170672	      3.64585103
      0.12000000	    -11.40864957	      5.08166584	    -34.86046528	     -1.04538609	      0.97530942	     -0.22750767	     19.84328251	      3.43392534	     -5.06872740	    -20.66751518	     18.36884130	     -9.12811365	     19.17389503	     -0.84503327	     -1.01893071	    -19.84893454	     20.44688946	     -2.81825729	      5.52547635	      3.82730525	      3.67170758
      0.13000000	    -11.43297113	      5.10192378	    -34.84492186	     -1.04562399	      0.97531139	     -0.22759824	     19.86698111	      3.43149722	     -5.09128738	    -20.61955424	     18.33842346	     -9.13334939	     19.16274501	     -0.84405374	     -1.01283993	    -19.73492121	     20.41686967	     -2.81764029	      5.54966585	      3.80975180	      3.69520282
      0.14000000	    -11.45192402	      5.12109379	    -34.83084103	     -1.04585141	      0.97531607	     -0.22767570	     19.88667001	      3.42731780	     -5.11208660	    -20.57627278	     18.30972874	     -9.14111278	     19.15106196	     -0.84056804	     -1.00009545	    -19.63189273	     20.38625403	     -2.81774336	      5.57114155	      3.79078843	      3.71709500
      0.15000000	    -11.46096178	      5.14169831	    -34.81255335	     -1.04607427	      0.97532997	     -0.22775273	     19.90351447	      3.41644215	     -5.12202039	    -20.54407865	     18.27079874	     -9.16214885	     19.13711318	     -0.82626343	     -0.96581266	    -19.53952716	     20.34025064	     -2.82167658	      5.58533635	      3.76157435	      3.73521352
      0.16000000	    -11.47289767	      5.14780312	    -34.80130318	     -1.04628063	      0.97533718	     -0.22779428	     19.91227082	      3.42000607	     -5.14882815	    -20.51083841	     18.26406278	     -9.17102820	     19.12678400	     -0.83432774	     -0.96559769	    -19.47053157	     20.33240484	     -2.82223840	      5.59723580	      3.75145282	      3.75272562
      0.17000000	    -11.47305218	      5.15362391	    -34.78591599	     -1.04648063	      0.97536819	     -0.22784032	     19.91229125	      3.41765541	     -5.16220598	    -20.48203834	     18.22858030	     -9.19670915	     19.09983052	     -0.82938821	     -0.93194947	    -19.38884963	     20.30058557	     -2.82212559	      5.59861106	      3.73241807	      3.76864557
      0.18000000	    -11.48030956	      5.15337097	    -34.77371393	     -1.04667555	      0.97538090	     -0.22787503	     19.91888120	      3.42371496	     -5.18719518	    -20.46147139	     18.22323466	     -9.20535080	     19.08101658	     -0.84025230	     -0.93639551	    -19.31849853	     20.29490766	     -2.82036390	      5.60494974	      3.72750489	      3.78109485
